<!-- TriviaChamp favicon — perfectly centered -->
<svg xmlns="http://www.w3.org/2000/svg" viewBox="0 0 64 64" role="img" aria-label="TriviaChamp" preserveAspectRatio="xMidYMid meet">
  <title>TriviaChamp</title>

  <!-- Background with safe padding -->
  <rect x="4" y="4" width="56" height="56" rx="12" fill="#0B1020"/>

  <!-- All shapes are drawn around (0,0) and then translated to (32,32) -->
  <g transform="translate(32,32)">
    <!-- Trophy (gold) -->
    <g fill="#FCD34D">
      <!-- Cup: symmetric around x=0 -->
      <path d="M-12 -12H12V-2C12 4 6 8 0 8S-12 4 -12 -2V-12Z"/>

      <!-- Right handle -->
      <path id="h" d="M12 -10h5c2.4 0 3.5 1.7 3.5 3.6 0 3.2-3.4 4.8-7 4.5v-3c1.9.2 3.4-.6 3.4-1.7 0-.7-.6-1.4-1.9-1.4H12Z"/>
      <!-- Left handle (mirrored) -->
      <use href="#h" transform="scale(-1,1)"/>

      <!-- Stem & base (centered) -->
      <rect x="-2" y="8" width="4" height="6" rx="1"/>
      <rect x="-10" y="16" width="20" height="4" rx="2"/>
    </g>

    <!-- Star (win marker), centered at (0,-6) -->
    <path fill="#FFFFFF" d="M0 -10l1.9 3.9 4.3.6-3.1 3 .7 4.2L0 -1l-3.8 2 .7-4.2-3.1-3 4.3-.6L0 -10z"/>
  </g>
</svg>
